<?xml version="1.0" encoding="UTF-8" standalone="no"?>
<!DOCTYPE svg PUBLIC "-//W3C//DTD SVG 1.1//EN"
 "http://www.w3.org/Graphics/SVG/1.1/DTD/svg11.dtd">
<!-- Generated by graphviz version 2.40.1 (20161225.0304)
 -->
<!-- Title: controllers_diagram Pages: 1 -->
<svg width="567pt" height="499pt"
 viewBox="0.00 0.00 567.38 499.00" xmlns="http://www.w3.org/2000/svg" xmlns:xlink="http://www.w3.org/1999/xlink">
<g id="graph0" class="graph" transform="scale(1 1) rotate(0) translate(4 495)">
<title>controllers_diagram</title>
<polygon fill="transparent" stroke="transparent" points="-4,4 -4,-495 563.3755,-495 563.3755,4 -4,4"/>
<!-- _diagram_info -->
<g id="node1" class="node">
<title>_diagram_info</title>
<text text-anchor="start" x="360" y="-106.6" font-family="Times,serif" font-size="13.00" fill="#000000">Controllers diagram</text>
<text text-anchor="start" x="360" y="-93.6" font-family="Times,serif" font-size="13.00" fill="#000000">Date: Jul 13 2017 &#45; 01:25</text>
<text text-anchor="start" x="360" y="-80.6" font-family="Times,serif" font-size="13.00" fill="#000000">Migration version: 20170712014937</text>
<text text-anchor="start" x="360" y="-67.6" font-family="Times,serif" font-size="13.00" fill="#000000">Generated by RailRoady 1.5.3</text>
<text text-anchor="start" x="360" y="-54.6" font-family="Times,serif" font-size="13.00" fill="#000000">http://railroady.prestonlee.com</text>
</g>
<!-- ApplicationController -->
<g id="node2" class="node">
<title>ApplicationController</title>
<path fill="none" stroke="#000000" d="M60,-.5C60,-.5 175.6416,-.5 175.6416,-.5 181.6416,-.5 187.6416,-6.5 187.6416,-12.5 187.6416,-12.5 187.6416,-80.5 187.6416,-80.5 187.6416,-86.5 181.6416,-92.5 175.6416,-92.5 175.6416,-92.5 60,-92.5 60,-92.5 54,-92.5 48,-86.5 48,-80.5 48,-80.5 48,-12.5 48,-12.5 48,-6.5 54,-.5 60,-.5"/>
<text text-anchor="middle" x="117.8208" y="-77.3" font-family="Times,serif" font-size="14.00" fill="#000000">ApplicationController</text>
<polyline fill="none" stroke="#000000" points="48,-70.5 187.6416,-70.5 "/>
<polyline fill="none" stroke="#000000" points="48,-46.5 187.6416,-46.5 "/>
<polyline fill="none" stroke="#000000" points="48,-22.5 187.6416,-22.5 "/>
<text text-anchor="start" x="56" y="-7.3" font-family="Times,serif" font-size="14.00" fill="#000000">_layout</text>
</g>
<!-- BookingsController -->
<g id="node3" class="node">
<title>BookingsController</title>
<path fill="none" stroke="#000000" d="M316,-256.5C316,-256.5 419.2207,-256.5 419.2207,-256.5 425.2207,-256.5 431.2207,-262.5 431.2207,-268.5 431.2207,-268.5 431.2207,-418.5 431.2207,-418.5 431.2207,-424.5 425.2207,-430.5 419.2207,-430.5 419.2207,-430.5 316,-430.5 316,-430.5 310,-430.5 304,-424.5 304,-418.5 304,-418.5 304,-268.5 304,-268.5 304,-262.5 310,-256.5 316,-256.5"/>
<text text-anchor="middle" x="367.6104" y="-415.3" font-family="Times,serif" font-size="14.00" fill="#000000">BookingsController</text>
<polyline fill="none" stroke="#000000" points="304,-408.5 431.2207,-408.5 "/>
<text text-anchor="start" x="312" y="-393.3" font-family="Times,serif" font-size="14.00" fill="#000000">create</text>
<text text-anchor="start" x="312" y="-379.3" font-family="Times,serif" font-size="14.00" fill="#000000">delete</text>
<text text-anchor="start" x="312" y="-365.3" font-family="Times,serif" font-size="14.00" fill="#000000">index</text>
<text text-anchor="start" x="312" y="-351.3" font-family="Times,serif" font-size="14.00" fill="#000000">new</text>
<text text-anchor="start" x="312" y="-337.3" font-family="Times,serif" font-size="14.00" fill="#000000">show</text>
<text text-anchor="start" x="312" y="-323.3" font-family="Times,serif" font-size="14.00" fill="#000000">update</text>
<polyline fill="none" stroke="#000000" points="304,-316.5 431.2207,-316.5 "/>
<polyline fill="none" stroke="#000000" points="304,-292.5 431.2207,-292.5 "/>
<text text-anchor="start" x="312" y="-277.3" font-family="Times,serif" font-size="14.00" fill="#000000">_layout</text>
<text text-anchor="start" x="312" y="-263.3" font-family="Times,serif" font-size="14.00" fill="#000000">strong_params</text>
</g>
<!-- CarsController -->
<g id="node4" class="node">
<title>CarsController</title>
<path fill="none" stroke="#000000" d="M188,-256.5C188,-256.5 263.207,-256.5 263.207,-256.5 269.207,-256.5 275.207,-262.5 275.207,-268.5 275.207,-268.5 275.207,-418.5 275.207,-418.5 275.207,-424.5 269.207,-430.5 263.207,-430.5 263.207,-430.5 188,-430.5 188,-430.5 182,-430.5 176,-424.5 176,-418.5 176,-418.5 176,-268.5 176,-268.5 176,-262.5 182,-256.5 188,-256.5"/>
<text text-anchor="middle" x="225.6035" y="-415.3" font-family="Times,serif" font-size="14.00" fill="#000000">CarsController</text>
<polyline fill="none" stroke="#000000" points="176,-408.5 275.207,-408.5 "/>
<text text-anchor="start" x="184" y="-393.3" font-family="Times,serif" font-size="14.00" fill="#000000">create</text>
<text text-anchor="start" x="184" y="-379.3" font-family="Times,serif" font-size="14.00" fill="#000000">delete</text>
<text text-anchor="start" x="184" y="-365.3" font-family="Times,serif" font-size="14.00" fill="#000000">index</text>
<text text-anchor="start" x="184" y="-351.3" font-family="Times,serif" font-size="14.00" fill="#000000">new</text>
<text text-anchor="start" x="184" y="-337.3" font-family="Times,serif" font-size="14.00" fill="#000000">show</text>
<text text-anchor="start" x="184" y="-323.3" font-family="Times,serif" font-size="14.00" fill="#000000">update</text>
<polyline fill="none" stroke="#000000" points="176,-316.5 275.207,-316.5 "/>
<polyline fill="none" stroke="#000000" points="176,-292.5 275.207,-292.5 "/>
<text text-anchor="start" x="184" y="-277.3" font-family="Times,serif" font-size="14.00" fill="#000000">_layout</text>
<text text-anchor="start" x="184" y="-263.3" font-family="Times,serif" font-size="14.00" fill="#000000">strong_params</text>
</g>
<!-- Users::CarsController -->
<g id="node5" class="node">
<title>Users::CarsController</title>
<path fill="none" stroke="#000000" d="M12,-400.5C12,-400.5 126.8691,-400.5 126.8691,-400.5 132.8691,-400.5 138.8691,-406.5 138.8691,-412.5 138.8691,-412.5 138.8691,-478.5 138.8691,-478.5 138.8691,-484.5 132.8691,-490.5 126.8691,-490.5 126.8691,-490.5 12,-490.5 12,-490.5 6,-490.5 0,-484.5 0,-478.5 0,-478.5 0,-412.5 0,-412.5 0,-406.5 6,-400.5 12,-400.5"/>
<text text-anchor="middle" x="69.4346" y="-475.3" font-family="Times,serif" font-size="14.00" fill="#000000">Users::CarsController</text>
<polyline fill="none" stroke="#000000" points="0,-468.5 138.8691,-468.5 "/>
<text text-anchor="start" x="8" y="-453.3" font-family="Times,serif" font-size="14.00" fill="#000000">index</text>
<polyline fill="none" stroke="#000000" points="0,-446.5 138.8691,-446.5 "/>
<polyline fill="none" stroke="#000000" points="0,-422.5 138.8691,-422.5 "/>
<text text-anchor="start" x="8" y="-407.3" font-family="Times,serif" font-size="14.00" fill="#000000">_layout</text>
</g>
<!-- Users::OmniauthCallbacksController -->
<g id="node6" class="node">
<title>Users::OmniauthCallbacksController</title>
<path fill="none" stroke="#000000" d="M108,-128.5C108,-128.5 308.4072,-128.5 308.4072,-128.5 314.4072,-128.5 320.4072,-134.5 320.4072,-140.5 320.4072,-140.5 320.4072,-206.5 320.4072,-206.5 320.4072,-212.5 314.4072,-218.5 308.4072,-218.5 308.4072,-218.5 108,-218.5 108,-218.5 102,-218.5 96,-212.5 96,-206.5 96,-206.5 96,-140.5 96,-140.5 96,-134.5 102,-128.5 108,-128.5"/>
<text text-anchor="middle" x="208.2036" y="-203.3" font-family="Times,serif" font-size="14.00" fill="#000000">Users::OmniauthCallbacksController</text>
<polyline fill="none" stroke="#000000" points="96,-196.5 320.4072,-196.5 "/>
<text text-anchor="start" x="104" y="-181.3" font-family="Times,serif" font-size="14.00" fill="#000000">facebook</text>
<polyline fill="none" stroke="#000000" points="96,-174.5 320.4072,-174.5 "/>
<polyline fill="none" stroke="#000000" points="96,-150.5 320.4072,-150.5 "/>
<text text-anchor="start" x="104" y="-135.3" font-family="Times,serif" font-size="14.00" fill="#000000">_layout</text>
</g>
</g>
</svg>
