<?xml version="1.0" encoding="UTF-8" standalone="no"?>
<!DOCTYPE svg PUBLIC "-//W3C//DTD SVG 1.1//EN"
 "http://www.w3.org/Graphics/SVG/1.1/DTD/svg11.dtd">
<!-- Generated by graphviz version 2.40.1 (20161225.0304)
 -->
<!-- Title: models_diagram Pages: 1 -->
<svg width="752pt" height="804pt"
 viewBox="0.00 0.00 752.32 804.00" xmlns="http://www.w3.org/2000/svg" xmlns:xlink="http://www.w3.org/1999/xlink">
<g id="graph0" class="graph" transform="scale(1 1) rotate(0) translate(4 800)">
<title>models_diagram</title>
<polygon fill="transparent" stroke="transparent" points="-4,4 -4,-800 748.3225,-800 748.3225,4 -4,4"/>
<!-- _diagram_info -->
<g id="node1" class="node">
<title>_diagram_info</title>
<text text-anchor="start" x="8" y="-690.6" font-family="Times,serif" font-size="13.00" fill="#000000">Models diagram</text>
<text text-anchor="start" x="8" y="-677.6" font-family="Times,serif" font-size="13.00" fill="#000000">Date: Jul 13 2017 &#45; 01:25</text>
<text text-anchor="start" x="8" y="-664.6" font-family="Times,serif" font-size="13.00" fill="#000000">Migration version: 20170712014937</text>
<text text-anchor="start" x="8" y="-651.6" font-family="Times,serif" font-size="13.00" fill="#000000">Generated by RailRoady 1.5.3</text>
<text text-anchor="start" x="8" y="-638.6" font-family="Times,serif" font-size="13.00" fill="#000000">http://railroady.prestonlee.com</text>
</g>
<!-- ApplicationRecord -->
<g id="node2" class="node">
<title>ApplicationRecord</title>
<ellipse fill="none" stroke="#000000" cx="302.6877" cy="-668.5" rx="77.2916" ry="18"/>
<text text-anchor="middle" x="302.6877" y="-664.3" font-family="Times,serif" font-size="14.00" fill="#000000">ApplicationRecord</text>
</g>
<!-- Booking -->
<g id="node3" class="node">
<title>Booking</title>
<path fill="none" stroke="#000000" d="M296.8254,-.5C296.8254,-.5 520.55,-.5 520.55,-.5 526.55,-.5 532.55,-6.5 532.55,-12.5 532.55,-12.5 532.55,-116.5 532.55,-116.5 532.55,-122.5 526.55,-128.5 520.55,-128.5 520.55,-128.5 296.8254,-128.5 296.8254,-128.5 290.8254,-128.5 284.8254,-122.5 284.8254,-116.5 284.8254,-116.5 284.8254,-12.5 284.8254,-12.5 284.8254,-6.5 290.8254,-.5 296.8254,-.5"/>
<text text-anchor="middle" x="408.6877" y="-113.3" font-family="Times,serif" font-size="14.00" fill="#000000">Booking</text>
<polyline fill="none" stroke="#000000" points="284.8254,-106.5 532.55,-106.5 "/>
<text text-anchor="start" x="292.8254" y="-91.3" font-family="Times,serif" font-size="14.00" fill="#000000">user_id :integer</text>
<text text-anchor="start" x="292.8254" y="-77.3" font-family="Times,serif" font-size="14.00" fill="#000000">start_date :date</text>
<text text-anchor="start" x="292.8254" y="-63.3" font-family="Times,serif" font-size="14.00" fill="#000000">end_date :date</text>
<text text-anchor="start" x="292.8254" y="-49.3" font-family="Times,serif" font-size="14.00" fill="#000000">id :integer</text>
<text text-anchor="start" x="292.8254" y="-35.3" font-family="Times,serif" font-size="14.00" fill="#000000">car_id :integer</text>
<text text-anchor="start" x="292.8254" y="-21.3" font-family="Times,serif" font-size="14.00" fill="#000000">created_at :timestamp without time zone</text>
<text text-anchor="start" x="292.8254" y="-7.3" font-family="Times,serif" font-size="14.00" fill="#000000">updated_at :timestamp without time zone</text>
</g>
<!-- Car -->
<g id="node4" class="node">
<title>Car</title>
<path fill="none" stroke="#000000" d="M409.8254,-541.5C409.8254,-541.5 633.55,-541.5 633.55,-541.5 639.55,-541.5 645.55,-547.5 645.55,-553.5 645.55,-553.5 645.55,-783.5 645.55,-783.5 645.55,-789.5 639.55,-795.5 633.55,-795.5 633.55,-795.5 409.8254,-795.5 409.8254,-795.5 403.8254,-795.5 397.8254,-789.5 397.8254,-783.5 397.8254,-783.5 397.8254,-553.5 397.8254,-553.5 397.8254,-547.5 403.8254,-541.5 409.8254,-541.5"/>
<text text-anchor="middle" x="521.6877" y="-780.3" font-family="Times,serif" font-size="14.00" fill="#000000">Car</text>
<polyline fill="none" stroke="#000000" points="397.8254,-773.5 645.55,-773.5 "/>
<text text-anchor="start" x="405.8254" y="-758.3" font-family="Times,serif" font-size="14.00" fill="#000000">longitude :double precision</text>
<text text-anchor="start" x="405.8254" y="-744.3" font-family="Times,serif" font-size="14.00" fill="#000000">name :character varying</text>
<text text-anchor="start" x="405.8254" y="-730.3" font-family="Times,serif" font-size="14.00" fill="#000000">make :character varying</text>
<text text-anchor="start" x="405.8254" y="-716.3" font-family="Times,serif" font-size="14.00" fill="#000000">model :character varying</text>
<text text-anchor="start" x="405.8254" y="-702.3" font-family="Times,serif" font-size="14.00" fill="#000000">year :integer</text>
<text text-anchor="start" x="405.8254" y="-688.3" font-family="Times,serif" font-size="14.00" fill="#000000">color :character varying</text>
<text text-anchor="start" x="405.8254" y="-674.3" font-family="Times,serif" font-size="14.00" fill="#000000">seats :integer</text>
<text text-anchor="start" x="405.8254" y="-660.3" font-family="Times,serif" font-size="14.00" fill="#000000">location :character varying</text>
<text text-anchor="start" x="405.8254" y="-646.3" font-family="Times,serif" font-size="14.00" fill="#000000">transmission :character varying</text>
<text text-anchor="start" x="405.8254" y="-632.3" font-family="Times,serif" font-size="14.00" fill="#000000">price :double precision</text>
<text text-anchor="start" x="405.8254" y="-618.3" font-family="Times,serif" font-size="14.00" fill="#000000">photo :character varying</text>
<text text-anchor="start" x="405.8254" y="-604.3" font-family="Times,serif" font-size="14.00" fill="#000000">user_id :integer</text>
<text text-anchor="start" x="405.8254" y="-590.3" font-family="Times,serif" font-size="14.00" fill="#000000">created_at :timestamp without time zone</text>
<text text-anchor="start" x="405.8254" y="-576.3" font-family="Times,serif" font-size="14.00" fill="#000000">updated_at :timestamp without time zone</text>
<text text-anchor="start" x="405.8254" y="-562.3" font-family="Times,serif" font-size="14.00" fill="#000000">latitude :double precision</text>
<text text-anchor="start" x="405.8254" y="-548.3" font-family="Times,serif" font-size="14.00" fill="#000000">id :integer</text>
</g>
<!-- Car&#45;&gt;Booking -->
<g id="edge1" class="edge">
<title>Car&#45;&gt;Booking</title>
<path fill="none" stroke="#3061a9" d="M431.9367,-534.0989C425.4263,-519.9759 419.8098,-505.4778 415.6877,-491 381.6,-371.2756 389.2596,-224.893 398.5391,-138.4797"/>
<ellipse fill="none" stroke="#3061a9" cx="433.7066" cy="-537.8335" rx="4" ry="4"/>
<polygon fill="#3061a9" stroke="#3061a9" points="398.5433,-138.4418 404.119,-128.9993 399.0949,-133.4723 399.6465,-128.5028 399.6465,-128.5028 399.6465,-128.5028 399.0949,-133.4723 395.174,-128.0064 398.5433,-138.4418 398.5433,-138.4418"/>
</g>
<!-- User -->
<g id="node5" class="node">
<title>User</title>
<path fill="none" stroke="#000000" d="M437.053,-166.5C437.053,-166.5 732.3225,-166.5 732.3225,-166.5 738.3225,-166.5 744.3225,-172.5 744.3225,-178.5 744.3225,-178.5 744.3225,-478.5 744.3225,-478.5 744.3225,-484.5 738.3225,-490.5 732.3225,-490.5 732.3225,-490.5 437.053,-490.5 437.053,-490.5 431.053,-490.5 425.053,-484.5 425.053,-478.5 425.053,-478.5 425.053,-178.5 425.053,-178.5 425.053,-172.5 431.053,-166.5 437.053,-166.5"/>
<text text-anchor="middle" x="584.6877" y="-475.3" font-family="Times,serif" font-size="14.00" fill="#000000">User</text>
<polyline fill="none" stroke="#000000" points="425.053,-468.5 744.3225,-468.5 "/>
<text text-anchor="start" x="433.053" y="-453.3" font-family="Times,serif" font-size="14.00" fill="#000000">token_expiry :timestamp without time zone</text>
<text text-anchor="start" x="433.053" y="-439.3" font-family="Times,serif" font-size="14.00" fill="#000000">email :character varying</text>
<text text-anchor="start" x="433.053" y="-425.3" font-family="Times,serif" font-size="14.00" fill="#000000">encrypted_password :character varying</text>
<text text-anchor="start" x="433.053" y="-411.3" font-family="Times,serif" font-size="14.00" fill="#000000">reset_password_token :character varying</text>
<text text-anchor="start" x="433.053" y="-397.3" font-family="Times,serif" font-size="14.00" fill="#000000">reset_password_sent_at :timestamp without time zone</text>
<text text-anchor="start" x="433.053" y="-383.3" font-family="Times,serif" font-size="14.00" fill="#000000">remember_created_at :timestamp without time zone</text>
<text text-anchor="start" x="433.053" y="-369.3" font-family="Times,serif" font-size="14.00" fill="#000000">sign_in_count :integer</text>
<text text-anchor="start" x="433.053" y="-355.3" font-family="Times,serif" font-size="14.00" fill="#000000">current_sign_in_at :timestamp without time zone</text>
<text text-anchor="start" x="433.053" y="-341.3" font-family="Times,serif" font-size="14.00" fill="#000000">last_sign_in_at :timestamp without time zone</text>
<text text-anchor="start" x="433.053" y="-327.3" font-family="Times,serif" font-size="14.00" fill="#000000">current_sign_in_ip :inet</text>
<text text-anchor="start" x="433.053" y="-313.3" font-family="Times,serif" font-size="14.00" fill="#000000">last_sign_in_ip :inet</text>
<text text-anchor="start" x="433.053" y="-299.3" font-family="Times,serif" font-size="14.00" fill="#000000">created_at :timestamp without time zone</text>
<text text-anchor="start" x="433.053" y="-285.3" font-family="Times,serif" font-size="14.00" fill="#000000">updated_at :timestamp without time zone</text>
<text text-anchor="start" x="433.053" y="-271.3" font-family="Times,serif" font-size="14.00" fill="#000000">address :character varying</text>
<text text-anchor="start" x="433.053" y="-257.3" font-family="Times,serif" font-size="14.00" fill="#000000">provider :character varying</text>
<text text-anchor="start" x="433.053" y="-243.3" font-family="Times,serif" font-size="14.00" fill="#000000">uid :character varying</text>
<text text-anchor="start" x="433.053" y="-229.3" font-family="Times,serif" font-size="14.00" fill="#000000">facebook_picture_url :character varying</text>
<text text-anchor="start" x="433.053" y="-215.3" font-family="Times,serif" font-size="14.00" fill="#000000">first_name :character varying</text>
<text text-anchor="start" x="433.053" y="-201.3" font-family="Times,serif" font-size="14.00" fill="#000000">last_name :character varying</text>
<text text-anchor="start" x="433.053" y="-187.3" font-family="Times,serif" font-size="14.00" fill="#000000">token :character varying</text>
<text text-anchor="start" x="433.053" y="-173.3" font-family="Times,serif" font-size="14.00" fill="#000000">id :integer</text>
</g>
<!-- Car&#45;&gt;User -->
<g id="edge2" class="edge">
<title>Car&#45;&gt;User</title>
<path fill="none" stroke="#cd85c5" d="M473.1556,-531.4252C473.5495,-523.8413 474.6769,-516.3274 476.7014,-509 477.5258,-506.0164 478.4139,-503.0325 479.3607,-500.0516"/>
<polygon fill="#cd85c5" stroke="#cd85c5" points="473.1557,-531.4261 468.5468,-541.3764 473.1011,-536.4258 473.0465,-541.4255 473.0465,-541.4255 473.0465,-541.4255 473.1011,-536.4258 477.5463,-541.4746 473.1557,-531.4261 473.1557,-531.4261"/>
<polygon fill="#cd85c5" stroke="#cd85c5" points="479.372,-500.0183 486.8403,-491.9887 480.9749,-495.2822 482.5777,-490.546 482.5777,-490.546 482.5777,-490.546 480.9749,-495.2822 478.3152,-489.1034 479.372,-500.0183 479.372,-500.0183"/>
<text text-anchor="middle" x="516.1809" y="-511.8" font-family="Times,serif" font-size="14.00" fill="#000000">booked_users</text>
</g>
<!-- User&#45;&gt;Booking -->
<g id="edge3" class="edge">
<title>User&#45;&gt;Booking</title>
<path fill="none" stroke="#b53656" d="M472.0093,-159.4823C466.879,-151.7868 461.8704,-144.2739 457.0613,-137.0604"/>
<ellipse fill="none" stroke="#b53656" cx="474.2634" cy="-162.8635" rx="4" ry="4"/>
<polygon fill="#b53656" stroke="#b53656" points="457.0593,-137.0574 455.2565,-126.2407 454.2858,-132.8971 451.5123,-128.7368 451.5123,-128.7368 451.5123,-128.7368 454.2858,-132.8971 447.7681,-131.233 457.0593,-137.0574 457.0593,-137.0574"/>
</g>
<!-- User&#45;&gt;Car -->
<g id="edge4" class="edge">
<title>User&#45;&gt;Car</title>
<path fill="none" stroke="#a9df48" d="M558.1592,-498.6583C556.6893,-506.8955 555.1953,-515.044 553.6877,-523 553.175,-525.706 552.6495,-528.4386 552.1133,-531.1909"/>
<ellipse fill="none" stroke="#a9df48" cx="558.8638" cy="-494.6757" rx="4" ry="4"/>
<polygon fill="#a9df48" stroke="#a9df48" points="552.068,-531.4203 545.7136,-540.3574 551.0981,-536.3253 550.1282,-541.2304 550.1282,-541.2304 550.1282,-541.2304 551.0981,-536.3253 554.5427,-542.1033 552.068,-531.4203 552.068,-531.4203"/>
</g>
<!-- User&#45;&gt;Car -->
<g id="edge5" class="edge">
<title>User&#45;&gt;Car</title>
<path fill="none" stroke="#d374ac" d="M571.6795,-500.7075C570.4657,-508.2604 569.1386,-515.7191 567.6877,-523 567.1482,-525.7078 566.5763,-528.4363 565.9756,-531.1793"/>
<polygon fill="#d374ac" stroke="#d374ac" points="571.6935,-500.6155 577.6587,-491.414 572.4521,-495.6734 573.2108,-490.7312 573.2108,-490.7312 573.2108,-490.7312 572.4521,-495.6734 568.7629,-490.0485 571.6935,-500.6155 571.6935,-500.6155"/>
<polygon fill="#d374ac" stroke="#d374ac" points="565.921,-531.4173 559.2955,-540.1553 564.8011,-536.2903 563.6812,-541.1632 563.6812,-541.1632 563.6812,-541.1632 564.8011,-536.2903 568.0669,-542.1711 565.921,-531.4173 565.921,-531.4173"/>
<text text-anchor="middle" x="600.9465" y="-511.8" font-family="Times,serif" font-size="14.00" fill="#000000">rented_cars</text>
</g>
</g>
</svg>
