<?xml version="1.0" encoding="UTF-8" standalone="no"?>
<!DOCTYPE svg PUBLIC "-//W3C//DTD SVG 1.1//EN"
 "http://www.w3.org/Graphics/SVG/1.1/DTD/svg11.dtd">
<!-- Generated by graphviz version 2.40.1 (20161225.0304)
 -->
<!-- Title: models_diagram Pages: 1 -->
<svg width="544pt" height="240pt"
 viewBox="0.00 0.00 544.21 240.00" xmlns="http://www.w3.org/2000/svg" xmlns:xlink="http://www.w3.org/1999/xlink">
<g id="graph0" class="graph" transform="scale(1 1) rotate(0) translate(4 236)">
<title>models_diagram</title>
<polygon fill="transparent" stroke="transparent" points="-4,4 -4,-236 540.2053,-236 540.2053,4 -4,4"/>
<!-- _diagram_info -->
<g id="node1" class="node">
<title>_diagram_info</title>
<text text-anchor="start" x="8" y="-217.6" font-family="Times,serif" font-size="13.00" fill="#000000">Models diagram</text>
<text text-anchor="start" x="8" y="-204.6" font-family="Times,serif" font-size="13.00" fill="#000000">Date: Jul 13 2017 &#45; 01:25</text>
<text text-anchor="start" x="8" y="-191.6" font-family="Times,serif" font-size="13.00" fill="#000000">Migration version: 20170712014937</text>
<text text-anchor="start" x="8" y="-178.6" font-family="Times,serif" font-size="13.00" fill="#000000">Generated by RailRoady 1.5.3</text>
<text text-anchor="start" x="8" y="-165.6" font-family="Times,serif" font-size="13.00" fill="#000000">http://railroady.prestonlee.com</text>
</g>
<!-- ApplicationRecord -->
<g id="node2" class="node">
<title>ApplicationRecord</title>
<ellipse fill="none" stroke="#000000" cx="302.6877" cy="-195.5" rx="77.2916" ry="18"/>
<text text-anchor="middle" x="302.6877" y="-191.3" font-family="Times,serif" font-size="14.00" fill="#000000">ApplicationRecord</text>
</g>
<!-- Booking -->
<g id="node3" class="node">
<title>Booking</title>
<ellipse fill="none" stroke="#000000" cx="357.6877" cy="-18" rx="40.6421" ry="18"/>
<text text-anchor="middle" x="357.6877" y="-13.8" font-family="Times,serif" font-size="14.00" fill="#000000">Booking</text>
</g>
<!-- Car -->
<g id="node4" class="node">
<title>Car</title>
<ellipse fill="none" stroke="#000000" cx="424.6877" cy="-195.5" rx="27" ry="18"/>
<text text-anchor="middle" x="424.6877" y="-191.3" font-family="Times,serif" font-size="14.00" fill="#000000">Car</text>
</g>
<!-- Car&#45;&gt;Booking -->
<g id="edge1" class="edge">
<title>Car&#45;&gt;Booking</title>
<path fill="none" stroke="#e27225" d="M404.0233,-174.211C391.1128,-160.7013 376.5843,-145.0301 374.6877,-141 360.4715,-110.7913 357.2344,-72.1158 356.8952,-46.2744"/>
<ellipse fill="none" stroke="#e27225" cx="407.0195" cy="-177.3312" rx="4" ry="4"/>
<polygon fill="#e27225" stroke="#e27225" points="356.8953,-46.0474 361.4037,-36.0511 356.8995,-41.0474 356.9037,-36.0474 356.9037,-36.0474 356.9037,-36.0474 356.8995,-41.0474 352.4037,-36.0436 356.8953,-46.0474 356.8953,-46.0474"/>
</g>
<!-- User -->
<g id="node5" class="node">
<title>User</title>
<ellipse fill="none" stroke="#000000" cx="435.6877" cy="-91" rx="27" ry="18"/>
<text text-anchor="middle" x="435.6877" y="-86.8" font-family="Times,serif" font-size="14.00" fill="#000000">User</text>
</g>
<!-- Car&#45;&gt;User -->
<g id="edge2" class="edge">
<title>Car&#45;&gt;User</title>
<path fill="none" stroke="#058319" d="M401.0426,-173.9642C392.6088,-164.7399 384.1104,-153.2674 379.7014,-141 377.5969,-135.1445 376.7201,-132.4615 379.7014,-127 384.9043,-117.4687 393.8311,-110.0841 403.0468,-104.5545"/>
<polygon fill="#058319" stroke="#058319" points="401.055,-173.977 404.7919,-184.2865 404.5378,-177.5645 408.0206,-181.152 408.0206,-181.152 408.0206,-181.152 404.5378,-177.5645 411.2494,-178.0174 401.055,-173.977 401.055,-173.977"/>
<polygon fill="#058319" stroke="#058319" points="403.0533,-104.551 413.9917,-103.7742 407.4561,-102.1813 411.859,-99.8117 411.859,-99.8117 411.859,-99.8117 407.4561,-102.1813 409.7263,-95.8491 403.0533,-104.551 403.0533,-104.551"/>
<text text-anchor="middle" x="419.1809" y="-129.8" font-family="Times,serif" font-size="14.00" fill="#000000">booked_users</text>
</g>
<!-- User&#45;&gt;Booking -->
<g id="edge3" class="edge">
<title>User&#45;&gt;Booking</title>
<path fill="none" stroke="#476700" d="M413.7913,-70.5072C404.0364,-61.3776 392.5011,-50.5818 382.4348,-41.1607"/>
<ellipse fill="none" stroke="#476700" cx="416.9828" cy="-73.4941" rx="4" ry="4"/>
<polygon fill="#476700" stroke="#476700" points="382.3784,-41.108 378.1521,-30.9892 378.7278,-37.6914 375.0772,-34.2747 375.0772,-34.2747 375.0772,-34.2747 378.7278,-37.6914 372.0023,-37.5603 382.3784,-41.108 382.3784,-41.108"/>
</g>
<!-- User&#45;&gt;Car -->
<g id="edge4" class="edge">
<title>User&#45;&gt;Car</title>
<path fill="none" stroke="#a8a398" d="M452.5778,-114.4534C456.5983,-122.6823 459.1084,-132.0964 456.6877,-141 453.8379,-151.482 448.4066,-162.0074 442.8166,-170.975"/>
<ellipse fill="none" stroke="#a8a398" cx="450.5137" cy="-110.768" rx="4" ry="4"/>
<polygon fill="#a8a398" stroke="#a8a398" points="442.7833,-171.0254 433.5111,-176.8801 440.0234,-175.1947 437.2635,-179.3641 437.2635,-179.3641 437.2635,-179.3641 440.0234,-175.1947 441.0159,-181.848 442.7833,-171.0254 442.7833,-171.0254"/>
</g>
<!-- User&#45;&gt;Car -->
<g id="edge5" class="edge">
<title>User&#45;&gt;Car</title>
<path fill="none" stroke="#8135f7" d="M461.4695,-111.3395C469.1323,-119.9218 474.5712,-130.3781 470.6877,-141 466.1705,-153.3556 457.479,-164.8431 448.8565,-174.0547"/>
<polygon fill="#8135f7" stroke="#8135f7" points="461.468,-111.338 457.4983,-101.1158 457.9047,-107.8304 454.3415,-104.3228 454.3415,-104.3228 454.3415,-104.3228 457.9047,-107.8304 451.1846,-107.5297 461.468,-111.338 461.468,-111.338"/>
<polygon fill="#8135f7" stroke="#8135f7" points="448.7751,-174.1365 438.5324,-178.0528 445.249,-177.6814 441.7228,-181.2264 441.7228,-181.2264 441.7228,-181.2264 445.249,-177.6814 444.9133,-184.3999 448.7751,-174.1365 448.7751,-174.1365"/>
<text text-anchor="middle" x="503.9465" y="-129.8" font-family="Times,serif" font-size="14.00" fill="#000000">rented_cars</text>
</g>
</g>
</svg>
